<?xml version="1.0" standalone="no"?>
<svg version="1.1" xmlns="http://www.w3.org/2000/svg" xmlns:xlink="http://www.w3.org/1999/xlink" preserveAspectRatio="xMidYMid meet" viewBox="901 428 89 94">
	<g data-item-type="text" data-item="Business" id="logo__item--business" class="logo__item">
		<g class="logo__item__inner" transform="translate(925 484.5) scale(1 1) rotate(0 0 0)">
			<text data-part-id="logo__item--business" dy="0" dominant-baseline="auto" alignment-baseline="auto" font-family="Montserrat" font-size="32px" fill="#e6893a" letter-spacing="0" font-weight="bold" font-style="normal" data-font-family="Montserrat" data-font-weight="bold" data-font-style="normal" data-ttf-url="/builder_assets/fontsttf/font-montserrat-bold-normal.ttf" data-font-filename="montserrat-bold-normal">p2p</text>
		</g>
	</g>
	<g data-item-type="shape" data-item="Shape" data-logo-item="" id="logo__item--shape_1" class="logo__item">
		<g class="logo__item__inner" transform="translate(902.8092079162598 441.37493896484375) scale(1 1) rotate(-110.31607584294525 40.76385498046875 47.20025634765625)">
			<g>
				<path fill="#e6893a" d="M16.3,83.1C11.1,76.9,7.8,69,7,60.8C6.1,52.6,7.7,44,11.6,36.5c3.8-7.5,9.9-13.8,17.3-18.1   c7.4-4.2,16-6.2,24.5-5.8c8.5,0.5,16.8,3.4,23.7,8.5c6.8,5,12.2,12,15.2,19.9c3,7.9,3.6,16.5,1.9,24.6c-1.8,8.1-5.9,15.6-11.8,21.2   c5-6.3,8.4-13.8,9.4-21.6c1.1-7.8,0-15.7-3.1-22.8c-6-14.2-20.4-24.3-35.7-24.9c-7.6-0.5-15.3,1.3-22,4.9   c-6.7,3.6-12.4,9.2-16.2,15.9C11,45,9,52.8,9.3,60.7C9.5,68.5,12,76.3,16.3,83.1z" data-part-id="logo__item--shape_1__0"></path>
			</g>
		</g>
	</g>
</svg>